<svg version="1" xmlns="http://www.w3.org/2000/svg" width="372" height="372" viewBox="0 0 279.000000 279.000000"><path d="M0 139.5V279h279V0H0v139.5zm223.1-90.3c.6.7 6 9.4 11.9 19.3l10.7 18-39.2.3-39.3.2-13.7 40.8c-7.5 22.4-18.2 54.4-23.7 71.2-5.6 16.8-10.6 30.8-11.2 31.2-1.7 1.1-45.6 1-45.6-.2 0-.5 10.6-32.7 23.5-71.6 12.9-38.9 23.5-70.9 23.5-71.1 0-.1-14.5-.4-32.2-.5l-32.2-.3-11.3-18.8C38.1 57.3 33 48.7 33 48.4c0-.2 42.5-.4 94.5-.4 74.2 0 94.7.3 95.6 1.2zm23.3 46.7c.3.5-3.5 13.3-8.4 28.5l-9.1 27.6H154l.6-2.8c.4-1.5 2.8-8.8 5.3-16.2l4.6-13.5 17.4-.5 17.4-.5 3.6-10.5c2-5.8 4-11.1 4.4-11.8 1-1.4 38.2-1.8 39.1-.3z"/></svg>