<svg xmlns="http://www.w3.org/2000/svg" viewBox="-50 -50 1100 1100"><circle cx="500" cy="500" r="475" fill="#fff"/><path d="M0 500c0-138 49-256 146-354C244 49 362 0 500 0s256 49 353 146c98 98 147 216 147 354s-49 256-147 353a482 482 0 0 1-353 147c-138 0-256-49-354-147A482 482 0 0 1 0 500zm55 0c0 122 43 227 131 314 87 88 192 131 314 131s227-43 314-131c88-87 131-192 131-314s-43-227-131-314A429 429 0 0 0 500 55c-122 0-227 43-314 131A429 429 0 0 0 55 500zm140 107c-2-2-2-5 0-7 6-6 12-8 20-6 8 1 12 2 14 4 9 4 19 12 30 26s20 23 26 28c31 26 63 28 96 6 2-9 7-17 13-23 5-7 11-11 16-14l27-12c-42-4-77-11-104-22s-48-25-63-42c-21-24-34-54-39-92-4-38-1-72 9-103 8-20 19-38 33-53-10-33-8-70 6-111 42 2 80 16 114 42 65-16 132-17 203-1 9-7 23-15 42-25s42-15 71-16a211 211 0 0 1 8 105c30 31 45 73 47 125 0 42-8 76-22 103s-40 51-76 69c-25 12-57 19-98 21 19 9 32 19 40 29 9 9 14 25 17 46v61l2 60a69 69 0 0 0 27 26c4 2 5 5 4 9s-6 6-15 6c-23 0-40-8-53-24-4-6-6-14-6-23v-94c0-10-3-18-8-22-5-5-10-8-15-9v123c0 22 2 36 7 43s9 13 10 19c1 2 0 3-3 3-3 1-9 0-16-3-17-4-29-12-36-26-6-14-9-28-9-44V668h-26v121c0 16-3 31-10 45-9 18-26 28-50 29-4-1-6-2-6-4l12-19 4-16c2-8 3-17 3-27V674c-5 1-10 4-14 9s-7 12-7 22v94c0 9-2 17-6 23-12 16-29 24-53 24-9 0-14-2-15-6-2-3-1-5 1-7l8-7 8-6c5-4 9-9 12-15 4-6 5-19 3-41s-2-37-1-43c-34 11-68 6-104-18-10-10-20-25-31-45-8-14-23-31-47-51z"/></svg>
