<svg xmlns="http://www.w3.org/2000/svg" viewBox="-50 -110 350 350" style="background-color:#cf4647;border-radius:17px"><g fill="#fff"><path d="M67.5 79.1l-1 2.5a317.4 317.4 0 0 0-3.7 12.1l-2.4 8c-1 2.6-1.6 5.2-2.4 7.8l-2 7-1.5 5.2-.7 2.5-1.1 2.8-1.7 2.8a12 12 0 0 1-2.2 2.3 4 4 0 0 1-2.5 1c-1.4 0-2.4-.6-3.1-1.5-.7-1-1-2.6-1-5.1v-2.3a165.7 165.7 0 0 1 3.2-12.4l2.7-9 2.7-8.4a137.5 137.5 0 0 1-16 14.6c-2.8 2-5.7 3.7-8.6 5a20.4 20.4 0 0 1-8.4 1.9c-3.1 0-5.7-.7-8-2.1-2.1-1.4-4-3.1-5.4-5.3s-2.5-4.7-3.2-7.4C.8 98.5.4 95.7.4 93v-1l.1-1c.2-5 1-10 2.1-15.3A128.6 128.6 0 0 1 22 31c2.9-4.4 6-8.5 9.3-12.2 3.3-3.7 6.7-7 10.1-9.6 3.5-2.7 7-4.8 10.5-6.3S59 .5 62.4.5c4 0 7.9 1.1 11.6 3.3 3.7 2.2 7.2 5.7 10.5 10.6a8.6 8.6 0 0 1 1.4 3.3l.3 3.2c0 2.3-.6 4.2-1.7 5.5a4.8 4.8 0 0 1-4 2c-1.4 0-2.7-.7-3.9-2.2a38.7 38.7 0 0 1-4-6.3 14.9 14.9 0 0 0-4.6-5.4 9.8 9.8 0 0 0-5.5-1.6c-3 0-6.3 1.3-9.8 4a57.3 57.3 0 0 0-10.3 10c-3.4 4.2-6.7 9-9.8 14.4-3 5.4-5.9 11-8.3 16.6-2.4 5.7-4.3 11.2-5.7 16.7A60.5 60.5 0 0 0 16.8 94c.2 1.6.6 3 1.1 4.2s1.3 2.3 2.3 3.1c1 .8 2.2 1.2 3.6 1.2 1.6 0 3.5-.5 5.5-1.6 2.1-1 4.2-2.5 6.4-4.3a90.5 90.5 0 0 0 21.5-24.9L63 53c.7-2 1.7-3.4 3-4.2a6.4 6.4 0 0 1 3.6-1.3 6 6 0 0 1 1.9.3c.6.2 1.2.6 1.7 1s.8 1 1.1 1.7c.3.7.5 1.5.5 2.5a39.1 39.1 0 0 1-2.3 13.4l-2.2 6.3-2.4 6.6zm83 15.3a61 61 0 0 1-6.7 7.6 67.6 67.6 0 0 1-8 6.6c-2.6 2-5.3 3.5-8 4.6-2.6 1.2-5 1.8-7 1.8s-3.9-.7-5.2-2.1c-1.3-1.4-2-3.8-2-7.2 0-2.4.4-5.2 1-8.4a39.7 39.7 0 0 1-10 11.8 27.6 27.6 0 0 1-16.3 5.7c-1.5 0-2.9-.2-4.2-.6-1.4-.4-2.6-1-3.6-2a11 11 0 0 1-2.5-3.5c-.6-1.5-1-3.4-1-5.6l.3-2.4c.2-1.5.7-4 1.7-7.3a202.9 202.9 0 0 1 12.7-32c.9-2 1.9-3.4 3.2-4.3a6.3 6.3 0 0 1 5.8-1c.6 0 1.2.4 1.8.8.6.4 1 .9 1.4 1.5.3.5.5 1.2.5 2l-.2 1.4c-.3.9-.7 2-1.4 3.4l-2.6 5L97 76a80.3 80.3 0 0 0-5.4 13.7c-.7 2.4-1.1 4.7-1.2 6.9 0 1 .2 1.8.6 2.6.4.8 1.2 1.2 2.2 1.2 2.8 0 5.6-1 8.2-2.8 2.6-1.9 5-4.2 7.2-7A70.4 70.4 0 0 0 119 72.8c.8-1.7 1.6-3.6 2.2-5.7.6-2 1.3-3.9 2-5.6.8-1.7 1.7-3.1 2.7-4.3.9-1 2-1.7 3.6-1.7s2.8.6 3.7 1.8a7 7 0 0 1 1.4 4.3c0 1-.3 2.2-1 3.8-.5 1.6-1.2 3.5-2.1 5.6l-3 6.8a92.4 92.4 0 0 0-5.1 14.6c-.6 2.4-1 4.6-1 6.6 0 1.9 1 2.8 3 2.8 1.4 0 3-.4 5-1.4 2-1 4.2-2.2 6.4-4a59.7 59.7 0 0 0 12.5-13.3l.7 10.6z"/><path d="M152.6 90.5c-.5 1.2-1 2.6-1.4 4.2a15 15 0 0 0-.7 4.2c0 .8.1 1.4.4 1.9.3.5.8.7 1.5.7 1 0 2-.3 3.5-1a68.3 68.3 0 0 0 9.5-6.2c1.7-1.4 3.4-3 5.1-4.3l5-4.5 4.1-4.1a3 3 0 0 1 1.3-.8l1.2-.3c1 0 1.6.3 2.2 1 .6.8 1 1.8 1 3 0 1-.4 2.3-1 3.6-.6 1.3-1.7 2.6-3.2 3.9-2.8 3-5.6 5.9-8.5 8.7a92 92 0 0 1-8.5 7.3 46.4 46.4 0 0 1-8.4 5 20.5 20.5 0 0 1-8 1.8 10 10 0 0 1-4.6-1 8.5 8.5 0 0 1-2.9-2.3 10 10 0 0 1-1.5-3.5 31.1 31.1 0 0 1 .6-12.2 59 59 0 0 1 2.3-7.4l4.7-12.1 4.4-11L170.6 15c.8-2 1.8-3.4 3.1-4.3a8 8 0 0 1 4.1-1.2c1.4 0 2.6.4 3.8 1.3 1 .9 1.7 2.3 1.7 4.3 0 .9-.2 1.9-.6 3l-1.4 3.3-3.9 8.9-5 11.6-5.3 13-5.4 13.2-4.9 12.1-3.9 10z"/><path d="M245.9 76.4l1.7-1c.6-.3 1-.4 1.5-.4 1 0 1.7.4 2.2 1.3.5.8.8 1.9.8 3.1a10.4 10.4 0 0 1-3.5 7.7 489 489 0 0 0-12.5 11.4c-3.7 3.4-7 6.3-10.4 8.8a50 50 0 0 1-9.6 5.8 23.9 23.9 0 0 1-10 2.1c-3.3 0-5.9-.7-7.7-2.2a7.2 7.2 0 0 1-2.7-6v-.6l.1-.6c.2-1.5 1-3.3 2.1-5.4a111.2 111.2 0 0 1 9.7-12.9c2-2.2 3.6-4.3 5.3-6.3 1.6-2 3-3.8 4-5.5 1.1-1.6 1.6-3 1.6-4a2 2 0 0 0-.6-1.5c-.5-.3-1.2-.5-2.2-.5-1.8 0-3.6.5-5.5 1.4-1.9 1-3.7 2.2-5.6 3.7-1.8 1.6-3.6 3.3-5.3 5.3l-4.9 6.2c-1.5 2.2-2.9 4.3-4.2 6.5l-3.2 6-1 2.4-1.6 3.6-1.8 4-1.7 4-1.4 3.2a24 24 0 0 1-.9 2l-1 2.7-1.8 4.6-2 5.5-2 5.4-1.8 4.6a22 22 0 0 0-.9 2.6l-1.6 3.8c-.6 1.2-1.2 2.3-2 3.2-.8.9-1.6 1.6-2.6 2.2a7.3 7.3 0 0 1-7.2-.4c-1-.7-1.6-2.2-1.6-4.3 0-1 0-2 .4-3.2.2-1 .6-2 1-3.2l1.2-3c.4-1 .8-2 1-3l7.3-15.7 7-15.5c2.3-5 4.4-10 6.4-15 1.9-5 3.5-9.7 4.8-14.3l1.4-4 2-5c.8-1.6 1.8-3 2.8-4.2 1-1.2 2-1.9 3.2-1.9 1.8 0 3 .4 3.8 1.2a5 5 0 0 1 1.2 3.6l-.1 1.5-.4 2.2-.4 2-.4 1.6a90.4 90.4 0 0 1 11.2-10c2-1.4 4-2.6 6.2-3.4a15.9 15.9 0 0 1 10.6-.8c1.4.5 2.7 1 3.8 1.9a8.3 8.3 0 0 1 3.8 7.2c0 2.1-.5 4.4-1.5 6.8a81.5 81.5 0 0 1-9.3 14.5l-5.3 6.3-4.2 4.9c-1.1 1.3-1.7 2.2-1.8 2.7 0 .6.2 1 .6 1.5s1.1.6 2 .6c.8 0 2-.5 3.3-1.3 1.5-1 3.5-2.3 6.1-4.4 2.6-2.1 6-4.8 10-8.3l14.9-13z"/></g></svg>
