<svg xmlns="http://www.w3.org/2000/svg" viewBox="0 0 100 100"><g fill="#764ABC"><path d="M65.6 65.4a5.6 5.6 0 0 0-.6-11.2h-.2a5.6 5.6 0 0 0-3.8 9.5 35.8 35.8 0 0 1-16.4 15.7 27 27 0 0 1-16.3 3.1c-4.5-.6-8-2.6-10.2-5.9a14.7 14.7 0 0 1-.8-15.5c1.9-3.8 4.9-6.6 6.8-8a54 54 0 0 1-1.3-5.1c-14.5 10.5-13 24.7-8.6 31.4 3.3 5 10 8.1 17.4 8.1a38.4 38.4 0 0 0 34-22.1z"/><path d="M83.2 53a40.6 40.6 0 0 0-31.6-13.8H50c-.9-1.8-2.8-3-4.9-3h-.2a5.6 5.6 0 0 0 .2 11.2h.2a5.6 5.6 0 0 0 4.9-3.4H52c7.6 0 14.8 2.2 21.3 6.5 5 3.3 8.6 7.6 10.6 12.8 1.7 4.2 1.6 8.3-.2 11.8A14.7 14.7 0 0 1 70 83.3c-4 0-7.8-1.2-9.8-2.1a59 59 0 0 1-4.5 3.6c4.3 2 8.7 3.1 12.9 3.1 9.6 0 16.7-5.3 19.4-10.6 2.9-5.8 2.7-15.8-4.8-24.3z"/><path d="M32.4 67.1c.1 3 2.6 5.4 5.6 5.4h.2a5.6 5.6 0 0 0-.2-11.2h-.2l-.7.1a36.6 36.6 0 0 1-5.2-22.2c.4-6 2.4-11.2 5.9-15.5 2.9-3.7 8.5-5.5 12.3-5.6 10.6-.2 15.1 13 15.4 18.3l5 1.5c-1.2-16.2-11.2-24.6-20.8-24.6-9 0-17.3 6.5-20.6 16.1a41 41 0 0 0 4 34.8c-.5.7-.8 1.8-.7 2.9z"/></g></svg>
